<mxfile host="app.diagrams.net" modified="2023-09-08T09:04:27.992Z" agent="Mozilla/5.0 (Macintosh; Intel Mac OS X 10_15_7) AppleWebKit/537.36 (KHTML, like Gecko) Chrome/116.0.0.0 Safari/537.36" version="21.7.2" etag="ljumSvM4xBwjenrtTtmN" type="github">
  <diagram name="第 1 页" id="ZXcnIEphrl3DPxr2amtC">
    <mxGraphModel>
      <root>
        <mxCell id="0" />
        <mxCell id="1" parent="0" />
      </root>
    </mxGraphModel>
  </diagram>
</mxfile>
